<mxfile host="app.diagrams.net" modified="2023-07-16T02:22:36.999Z" agent="Mozilla/5.0 (Macintosh; Intel Mac OS X 10_15_7) AppleWebKit/537.36 (KHTML, like Gecko) Chrome/114.0.0.0 Safari/537.36" etag="R3i3si3Ake5IUM-MfrXA" version="21.6.2" type="github">
  <diagram name="第 1 页" id="UQAENWKFMKEMZwTTzu6k">
    <mxGraphModel dx="1468" dy="700" grid="1" gridSize="10" guides="1" tooltips="1" connect="1" arrows="1" fold="1" page="1" pageScale="1" pageWidth="827" pageHeight="1169" math="0" shadow="0">
      <root>
        <mxCell id="0" />
        <mxCell id="1" parent="0" />
        <mxCell id="4a96NGDsUJ6DqveSW2GX-1" value="执行器" style="shape=umlLifeline;perimeter=lifelinePerimeter;whiteSpace=wrap;html=1;container=1;dropTarget=0;collapsible=0;recursiveResize=0;outlineConnect=0;portConstraint=eastwest;newEdgeStyle={&quot;edgeStyle&quot;:&quot;elbowEdgeStyle&quot;,&quot;elbow&quot;:&quot;vertical&quot;,&quot;curved&quot;:0,&quot;rounded&quot;:0};" vertex="1" parent="1">
          <mxGeometry x="80" y="80" width="100" height="420" as="geometry" />
        </mxCell>
        <mxCell id="4a96NGDsUJ6DqveSW2GX-5" value="" style="html=1;points=[];perimeter=orthogonalPerimeter;outlineConnect=0;targetShapes=umlLifeline;portConstraint=eastwest;newEdgeStyle={&quot;edgeStyle&quot;:&quot;elbowEdgeStyle&quot;,&quot;elbow&quot;:&quot;vertical&quot;,&quot;curved&quot;:0,&quot;rounded&quot;:0};" vertex="1" parent="4a96NGDsUJ6DqveSW2GX-1">
          <mxGeometry x="45" y="60" width="10" height="340" as="geometry" />
        </mxCell>
        <mxCell id="4a96NGDsUJ6DqveSW2GX-2" value="消息队列" style="shape=umlLifeline;perimeter=lifelinePerimeter;whiteSpace=wrap;html=1;container=1;dropTarget=0;collapsible=0;recursiveResize=0;outlineConnect=0;portConstraint=eastwest;newEdgeStyle={&quot;edgeStyle&quot;:&quot;elbowEdgeStyle&quot;,&quot;elbow&quot;:&quot;vertical&quot;,&quot;curved&quot;:0,&quot;rounded&quot;:0};" vertex="1" parent="1">
          <mxGeometry x="240" y="80" width="100" height="420" as="geometry" />
        </mxCell>
        <mxCell id="4a96NGDsUJ6DqveSW2GX-6" value="" style="html=1;points=[];perimeter=orthogonalPerimeter;outlineConnect=0;targetShapes=umlLifeline;portConstraint=eastwest;newEdgeStyle={&quot;edgeStyle&quot;:&quot;elbowEdgeStyle&quot;,&quot;elbow&quot;:&quot;vertical&quot;,&quot;curved&quot;:0,&quot;rounded&quot;:0};" vertex="1" parent="4a96NGDsUJ6DqveSW2GX-2">
          <mxGeometry x="45" y="70" width="10" height="320" as="geometry" />
        </mxCell>
        <mxCell id="4a96NGDsUJ6DqveSW2GX-3" value="调度器" style="shape=umlLifeline;perimeter=lifelinePerimeter;whiteSpace=wrap;html=1;container=1;dropTarget=0;collapsible=0;recursiveResize=0;outlineConnect=0;portConstraint=eastwest;newEdgeStyle={&quot;edgeStyle&quot;:&quot;elbowEdgeStyle&quot;,&quot;elbow&quot;:&quot;vertical&quot;,&quot;curved&quot;:0,&quot;rounded&quot;:0};" vertex="1" parent="1">
          <mxGeometry x="400" y="80" width="100" height="420" as="geometry" />
        </mxCell>
        <mxCell id="4a96NGDsUJ6DqveSW2GX-10" value="" style="html=1;points=[];perimeter=orthogonalPerimeter;outlineConnect=0;targetShapes=umlLifeline;portConstraint=eastwest;newEdgeStyle={&quot;edgeStyle&quot;:&quot;elbowEdgeStyle&quot;,&quot;elbow&quot;:&quot;vertical&quot;,&quot;curved&quot;:0,&quot;rounded&quot;:0};" vertex="1" parent="4a96NGDsUJ6DqveSW2GX-3">
          <mxGeometry x="45" y="100" width="10" height="270" as="geometry" />
        </mxCell>
        <mxCell id="4a96NGDsUJ6DqveSW2GX-13" value="" style="endArrow=block;endFill=1;endSize=6;html=1;rounded=0;edgeStyle=orthogonalEdgeStyle;" edge="1" parent="4a96NGDsUJ6DqveSW2GX-3">
          <mxGeometry width="160" relative="1" as="geometry">
            <mxPoint x="55" y="170" as="sourcePoint" />
            <mxPoint x="55" y="200" as="targetPoint" />
            <Array as="points">
              <mxPoint x="80" y="170" />
            </Array>
          </mxGeometry>
        </mxCell>
        <mxCell id="4a96NGDsUJ6DqveSW2GX-4" value="redis" style="shape=umlLifeline;perimeter=lifelinePerimeter;whiteSpace=wrap;html=1;container=1;dropTarget=0;collapsible=0;recursiveResize=0;outlineConnect=0;portConstraint=eastwest;newEdgeStyle={&quot;edgeStyle&quot;:&quot;elbowEdgeStyle&quot;,&quot;elbow&quot;:&quot;vertical&quot;,&quot;curved&quot;:0,&quot;rounded&quot;:0};" vertex="1" parent="1">
          <mxGeometry x="550" y="80" width="100" height="420" as="geometry" />
        </mxCell>
        <mxCell id="4a96NGDsUJ6DqveSW2GX-25" value="" style="html=1;points=[];perimeter=orthogonalPerimeter;outlineConnect=0;targetShapes=umlLifeline;portConstraint=eastwest;newEdgeStyle={&quot;edgeStyle&quot;:&quot;elbowEdgeStyle&quot;,&quot;elbow&quot;:&quot;vertical&quot;,&quot;curved&quot;:0,&quot;rounded&quot;:0};" vertex="1" parent="4a96NGDsUJ6DqveSW2GX-4">
          <mxGeometry x="45" y="240" width="10" height="80" as="geometry" />
        </mxCell>
        <mxCell id="4a96NGDsUJ6DqveSW2GX-7" value="1、发送任务失败消息" style="html=1;verticalAlign=bottom;endArrow=block;edgeStyle=elbowEdgeStyle;elbow=vertical;curved=0;rounded=0;" edge="1" parent="1" source="4a96NGDsUJ6DqveSW2GX-5">
          <mxGeometry relative="1" as="geometry">
            <mxPoint x="140" y="160" as="sourcePoint" />
            <mxPoint x="285" y="160" as="targetPoint" />
            <Array as="points">
              <mxPoint x="285" y="160" />
            </Array>
            <mxPoint as="offset" />
          </mxGeometry>
        </mxCell>
        <mxCell id="4a96NGDsUJ6DqveSW2GX-9" value="" style="endArrow=none;endFill=0;endSize=12;html=1;rounded=0;startArrow=block;startFill=1;" edge="1" parent="1">
          <mxGeometry width="160" relative="1" as="geometry">
            <mxPoint x="294" y="210" as="sourcePoint" />
            <mxPoint x="444" y="210" as="targetPoint" />
          </mxGeometry>
        </mxCell>
        <mxCell id="4a96NGDsUJ6DqveSW2GX-12" value="3、拉取消息" style="text;html=1;align=center;verticalAlign=middle;resizable=0;points=[];autosize=1;strokeColor=none;fillColor=none;" vertex="1" parent="1">
          <mxGeometry x="324" y="185" width="90" height="30" as="geometry" />
        </mxCell>
        <mxCell id="4a96NGDsUJ6DqveSW2GX-14" value="5、检查重试次数" style="text;html=1;align=center;verticalAlign=middle;resizable=0;points=[];autosize=1;strokeColor=none;fillColor=none;" vertex="1" parent="1">
          <mxGeometry x="480" y="250" width="110" height="30" as="geometry" />
        </mxCell>
        <mxCell id="4a96NGDsUJ6DqveSW2GX-8" value="2、return" style="html=1;verticalAlign=bottom;endArrow=open;dashed=1;endSize=8;edgeStyle=elbowEdgeStyle;elbow=vertical;curved=0;rounded=0;" edge="1" source="4a96NGDsUJ6DqveSW2GX-6" parent="1" target="4a96NGDsUJ6DqveSW2GX-5">
          <mxGeometry x="-0.0022" relative="1" as="geometry">
            <mxPoint x="130" y="220" as="targetPoint" />
            <Array as="points">
              <mxPoint x="150" y="180" />
            </Array>
            <mxPoint as="offset" />
          </mxGeometry>
        </mxCell>
        <mxCell id="4a96NGDsUJ6DqveSW2GX-16" value="4、return" style="html=1;verticalAlign=bottom;endArrow=none;dashed=1;endSize=8;edgeStyle=elbowEdgeStyle;elbow=vertical;curved=0;rounded=0;startArrow=open;startFill=0;endFill=0;" edge="1" parent="1" source="4a96NGDsUJ6DqveSW2GX-10" target="4a96NGDsUJ6DqveSW2GX-6">
          <mxGeometry x="0.0013" relative="1" as="geometry">
            <mxPoint x="440" y="229" as="sourcePoint" />
            <mxPoint x="300" y="229" as="targetPoint" />
            <Array as="points">
              <mxPoint x="300" y="229" />
            </Array>
            <mxPoint as="offset" />
          </mxGeometry>
        </mxCell>
        <mxCell id="4a96NGDsUJ6DqveSW2GX-17" value="" style="endArrow=none;endFill=0;endSize=12;html=1;rounded=0;startArrow=block;startFill=1;" edge="1" parent="1">
          <mxGeometry width="160" relative="1" as="geometry">
            <mxPoint x="294" y="320" as="sourcePoint" />
            <mxPoint x="444" y="320" as="targetPoint" />
          </mxGeometry>
        </mxCell>
        <mxCell id="4a96NGDsUJ6DqveSW2GX-18" value="7、发送消息到执行器" style="html=1;verticalAlign=bottom;endArrow=none;edgeStyle=elbowEdgeStyle;elbow=vertical;curved=0;rounded=0;endFill=0;startArrow=block;startFill=1;" edge="1" parent="1" source="4a96NGDsUJ6DqveSW2GX-5" target="4a96NGDsUJ6DqveSW2GX-6">
          <mxGeometry x="0.0039" relative="1" as="geometry">
            <mxPoint x="140" y="340" as="sourcePoint" />
            <mxPoint x="280" y="340" as="targetPoint" />
            <Array as="points">
              <mxPoint x="280" y="340" />
            </Array>
            <mxPoint as="offset" />
          </mxGeometry>
        </mxCell>
        <mxCell id="4a96NGDsUJ6DqveSW2GX-19" value="6、发送重新执行消息" style="text;html=1;align=center;verticalAlign=middle;resizable=0;points=[];autosize=1;strokeColor=none;fillColor=none;" vertex="1" parent="1">
          <mxGeometry x="299" y="298" width="140" height="30" as="geometry" />
        </mxCell>
        <mxCell id="4a96NGDsUJ6DqveSW2GX-20" value="loop" style="shape=umlFrame;whiteSpace=wrap;html=1;pointerEvents=0;" vertex="1" parent="1">
          <mxGeometry x="60" y="130" width="580" height="260" as="geometry" />
        </mxCell>
        <mxCell id="4a96NGDsUJ6DqveSW2GX-21" value="" style="endArrow=block;endFill=1;endSize=6;html=1;rounded=0;" edge="1" parent="1" target="4a96NGDsUJ6DqveSW2GX-25">
          <mxGeometry width="160" relative="1" as="geometry">
            <mxPoint x="455" y="342.73" as="sourcePoint" />
            <mxPoint x="590" y="343" as="targetPoint" />
          </mxGeometry>
        </mxCell>
        <mxCell id="4a96NGDsUJ6DqveSW2GX-22" value="8、更新任务状态" style="text;html=1;align=center;verticalAlign=middle;resizable=0;points=[];autosize=1;strokeColor=none;fillColor=none;" vertex="1" parent="1">
          <mxGeometry x="460" y="320" width="110" height="30" as="geometry" />
        </mxCell>
        <mxCell id="4a96NGDsUJ6DqveSW2GX-23" value="" style="endArrow=none;endFill=0;endSize=12;html=1;rounded=0;dashed=1;startArrow=open;startFill=0;" edge="1" parent="1" source="4a96NGDsUJ6DqveSW2GX-10">
          <mxGeometry width="160" relative="1" as="geometry">
            <mxPoint x="460" y="370" as="sourcePoint" />
            <mxPoint x="590" y="370" as="targetPoint" />
          </mxGeometry>
        </mxCell>
        <mxCell id="4a96NGDsUJ6DqveSW2GX-24" value="9、return" style="text;html=1;align=center;verticalAlign=middle;resizable=0;points=[];autosize=1;strokeColor=none;fillColor=none;" vertex="1" parent="1">
          <mxGeometry x="460" y="340" width="70" height="30" as="geometry" />
        </mxCell>
        <mxCell id="4a96NGDsUJ6DqveSW2GX-26" value="" style="endArrow=block;endFill=1;endSize=6;html=1;rounded=0;edgeStyle=orthogonalEdgeStyle;" edge="1" parent="1">
          <mxGeometry width="160" relative="1" as="geometry">
            <mxPoint x="455" y="410" as="sourcePoint" />
            <mxPoint x="455" y="440" as="targetPoint" />
            <Array as="points">
              <mxPoint x="480" y="410" />
            </Array>
          </mxGeometry>
        </mxCell>
        <mxCell id="4a96NGDsUJ6DqveSW2GX-27" value="10、重新调度" style="text;html=1;align=center;verticalAlign=middle;resizable=0;points=[];autosize=1;strokeColor=none;fillColor=none;" vertex="1" parent="1">
          <mxGeometry x="470" y="410" width="100" height="30" as="geometry" />
        </mxCell>
      </root>
    </mxGraphModel>
  </diagram>
</mxfile>
